<?xml version="1.0" encoding="UTF-8"?>
<svg width="223px" height="125px" viewBox="0 0 223 125" version="1.1" xmlns="http://www.w3.org/2000/svg" xmlns:xlink="http://www.w3.org/1999/xlink">
    <!-- Generator: Sketch 46.1 (44463) - http://www.bohemiancoding.com/sketch -->
    <title>clouddia</title>
    <desc>Created with Sketch.</desc>
    <defs></defs>
    <g id="Page-1" stroke="none" stroke-width="1" fill="none" fill-rule="evenodd">
        <g id="clouddia" transform="translate(2.000000, 2.000000)" stroke="#FFFFFF" stroke-width="5">
            <path d="M199.034127,68.4430328 L196.925499,67.8641044 L197.21857,65.6971761 C197.405552,64.3146547 197.5,62.9135787 197.5,61.5 C197.5,44.3791728 183.620827,30.5 166.5,30.5 C165.333941,30.5 164.176305,30.5642679 163.030452,30.691762 L161.124226,30.9038595 L160.425693,29.1175975 C153.731924,12.0005581 137.1907,0.5 118.5,0.5 C99.706053,0.5 83.09234,12.1280034 76.471157,29.3838743 L75.650284,31.5232032 L73.447712,30.8913504 C70.241966,29.9717166 66.903734,29.5 63.5,29.5 C43.7685005,29.5 27.7190743,45.3841009 27.5022255,65.0952265 L27.4768131,67.4051608 L25.1720667,67.5619593 C11.3248237,68.5040268 0.5,80.0445286 0.5,94 C0.5,108.635546 12.3644541,120.5 27,120.5 L192,120.5 C206.635546,120.5 218.5,108.635546 218.5,94 C218.5,81.992335 210.443512,71.5755049 199.034127,68.4430328 Z" id="Combined-Shape"></path>
        </g>
    </g>
</svg>