<?xml version="1.0" encoding="UTF-8"?>
<svg width="286px" height="320px" viewBox="0 0 286 320" version="1.1" xmlns="http://www.w3.org/2000/svg" xmlns:xlink="http://www.w3.org/1999/xlink">
    <!-- Generator: Sketch 46 (44423) - http://www.bohemiancoding.com/sketch -->
    <title>clouddia</title>
    <desc>Created with Sketch.</desc>
    <defs></defs>
    <g id="Page-1" stroke="none" stroke-width="1" fill="none" fill-rule="evenodd">
        <g id="clouddia" stroke="#FFFFFF" stroke-width="5">
            <path d="M233.034127,73.4430328 L230.925499,72.8641044 L231.21857,70.6971761 C231.405552,69.3146547 231.5,67.9135787 231.5,66.5 C231.5,49.3791728 217.620827,35.5 200.5,35.5 C199.333941,35.5 198.176305,35.5642679 197.030452,35.691762 L195.124226,35.9038595 L194.425693,34.1175975 C187.731924,17.0005581 171.1907,5.5 152.5,5.5 C133.706053,5.5 117.09234,17.1280034 110.471157,34.3838743 L109.650284,36.5232032 L107.447712,35.8913504 C104.241966,34.9717166 100.903734,34.5 97.5,34.5 C77.7685005,34.5 61.7190743,50.3841009 61.5022255,70.0952265 L61.4768131,72.4051608 L59.1720667,72.5619593 C45.3248237,73.5040268 34.5,85.0445286 34.5,99 C34.5,113.635546 46.3644541,125.5 61,125.5 L226,125.5 C240.635546,125.5 252.5,113.635546 252.5,99 C252.5,86.992335 244.443512,76.5755049 233.034127,73.4430328 Z" id="Combined-Shape"></path>
            <rect id="Rectangle-2" x="93.5" y="218.5" width="99" height="69" rx="15"></rect>
            <path d="M84.6715563,308.183253 C85.0712107,308.462907 85.745959,308.78321 86.651833,309.082849 C89.3382533,309.971448 93.427966,310.5 98.0770928,310.5 L187.922907,310.5 C192.572034,310.5 196.661747,309.971448 199.348167,309.082849 C200.254041,308.78321 200.928789,308.462907 201.328444,308.183253 L194.876733,293.262481 C194.639842,292.714628 193.013966,291.719437 190.445133,290.934502 C187.476086,290.027277 183.707342,289.5 179.923545,289.5 L106.076455,289.5 C102.292658,289.5 98.523914,290.027277 95.5548667,290.934502 C92.9860336,291.719437 91.3601579,292.714628 91.1232671,293.262481 L84.6715563,308.183253 Z" id="Rectangle-2-Copy"></path>
            <path d="M143,216 L143.352055,128" id="Line" stroke-linecap="square"></path>
        </g>
    </g>
</svg>