<?xml version="1.0" encoding="UTF-8"?>
<svg width="280px" height="180px" viewBox="0 0 280 180" version="1.1" xmlns="http://www.w3.org/2000/svg" xmlns:xlink="http://www.w3.org/1999/xlink">
    <!-- Generator: Sketch 46 (44423) - http://www.bohemiancoding.com/sketch -->
    <title>cloud</title>
    <desc>Created with Sketch.</desc>
    <defs></defs>
    <g id="Page-1" stroke="none" stroke-width="1" fill="none" fill-rule="evenodd">
        <g id="cloud" stroke="#222222" stroke-width="10">
            <path d="M52.0003042,95.6442927 C52.0001015,95.5962189 52,95.5481213 52,95.5 C52,76.9984609 66.9984609,62 85.5,62 C85.7936568,62 86.0864311,62.0037784 86.3782769,62.0112893 C89.0497984,42.7939651 105.547241,28 125.5,28 C131.881658,28 137.909848,29.513372 143.245263,32.2008067 C148.059131,29.5244325 153.60154,28 159.5,28 C178.001539,28 193,42.9984609 193,61.5 C193,61.8769908 192.993773,62.2525271 192.981416,62.6265117 C208.22331,65.6144578 219.761357,78.9386912 219.996344,95 C235.463973,95 248,107.536027 248,123 C248,138.463973 235.463973,151 220,151 L58,151 C42.536027,151 30,138.463973 30,123 C30,109.595418 39.4194238,98.3908593 52.0003042,95.6442927 Z" id="Combined-Shape"></path>
        </g>
    </g>
</svg>