<?xml version="1.0" encoding="UTF-8"?>
<svg width="394px" height="497px" viewBox="0 0 394 497" version="1.1" xmlns="http://www.w3.org/2000/svg" xmlns:xlink="http://www.w3.org/1999/xlink">
    <!-- Generator: Sketch 46 (44423) - http://www.bohemiancoding.com/sketch -->
    <title>keepinstock</title>
    <desc>Created with Sketch.</desc>
    <defs></defs>
    <g id="Page-1" stroke="none" stroke-width="1" fill="none" fill-rule="evenodd">
        <g id="keepinstock" fill="#222222">
            <path d="M66,38 L330,38 C334.418278,38 338,41.581722 338,46 L338,442 C338,446.418278 334.418278,450 330,450 L66,450 C61.581722,450 58,446.418278 58,442 L58,46 L58,46 C58,41.581722 61.581722,38 66,38 L66,38 Z M82,55 C77.581722,55 74,58.581722 74,63 L74,157 C74,161.418278 77.581722,165 82,165 L313,165 C317.418278,165 321,161.418278 321,157 L321,63 C321,58.581722 317.418278,55 313,55 L82,55 Z M82,189 C77.581722,189 74,192.581722 74,197 L74,291 C74,295.418278 77.581722,299 82,299 L313,299 C317.418278,299 321,295.418278 321,291 L321,197 C321,192.581722 317.418278,189 313,189 L82,189 Z M82,323 C77.581722,323 74,326.581722 74,331 L74,425 C74,429.418278 77.581722,433 82,433 L313,433 C317.418278,433 321,429.418278 321,425 L321,331 C321,326.581722 317.418278,323 313,323 L82,323 Z" id="Combined-Shape"></path>
        </g>
    </g>
</svg>